<svg width="15" height="15" viewBox="0 0 15 15" fill="none" xmlns="http://www.w3.org/2000/svg">
<g id="bell" clip-path="url(#clip0_1_463)">
<path id="Vector" d="M11.2589 5.44536C11.2589 4.51999 10.8913 3.63251 10.2369 2.97818C9.5826 2.32384 8.69512 1.95624 7.76975 1.95624C6.84438 1.95624 5.95691 2.32384 5.30257 2.97818C4.64823 3.63251 4.28063 4.51999 4.28063 5.44536C4.28063 9.516 2.53607 10.679 2.53607 10.679H13.0034C13.0034 10.679 11.2589 9.516 11.2589 5.44536Z" stroke="white" stroke-opacity="0.2" stroke-width="1.16304" stroke-linecap="round" stroke-linejoin="round"/>
<path id="Vector_2" d="M8.77585 13.005C8.67362 13.1813 8.52687 13.3275 8.35031 13.4292C8.17375 13.5309 7.97358 13.5845 7.76982 13.5845C7.56607 13.5845 7.36589 13.5309 7.18933 13.4292C7.01278 13.3275 6.86603 13.1813 6.76379 13.005" stroke="white" stroke-opacity="0.2" stroke-width="1.16304" stroke-linecap="round" stroke-linejoin="round"/>
<g id="Ellipse 2">
<path d="M13.5854 4.57303C13.5854 5.85769 12.544 6.89911 11.2593 6.89911C9.97465 6.89911 8.93323 5.85769 8.93323 4.57303C8.93323 3.28837 9.97465 2.24695 11.2593 2.24695C12.544 2.24695 13.5854 3.28837 13.5854 4.57303Z" fill="#64DF2B"/>
<path d="M11.2593 7.48063C12.8651 7.48063 14.1669 6.17885 14.1669 4.57303C14.1669 2.96721 12.8651 1.66543 11.2593 1.66543C9.65348 1.66543 8.35171 2.96721 8.35171 4.57303C8.35171 6.17885 9.65348 7.48063 11.2593 7.48063Z" stroke="#06D6A0" stroke-opacity="0.11" stroke-width="1.16304"/>
</g>
</g>
<defs>
<clipPath id="clip0_1_463">
<rect width="13.9565" height="13.9565" fill="white" transform="translate(0.791779 0.793213)"/>
</clipPath>
</defs>
</svg>
