<svg width="15" height="15" viewBox="0 0 15 15" fill="none" xmlns="http://www.w3.org/2000/svg">
<g id="settings" clip-path="url(#clip0_1_467)">
<path id="Vector" d="M7.42718 9.51591C8.39067 9.51591 9.17174 8.73485 9.17174 7.77135C9.17174 6.80786 8.39067 6.02679 7.42718 6.02679C6.46368 6.02679 5.68262 6.80786 5.68262 7.77135C5.68262 8.73485 6.46368 9.51591 7.42718 9.51591Z" stroke="white" stroke-opacity="0.2" stroke-width="1.16304" stroke-linecap="round" stroke-linejoin="round"/>
<path id="Vector_2" d="M11.7299 9.51598C11.6525 9.69137 11.6294 9.88593 11.6636 10.0746C11.6978 10.2632 11.7877 10.4373 11.9218 10.5743L11.9567 10.6092C12.0648 10.7172 12.1506 10.8455 12.2091 10.9867C12.2676 11.1279 12.2978 11.2792 12.2978 11.4321C12.2978 11.5849 12.2676 11.7363 12.2091 11.8775C12.1506 12.0186 12.0648 12.1469 11.9567 12.2549C11.8487 12.3631 11.7204 12.4489 11.5792 12.5074C11.438 12.5659 11.2867 12.596 11.1338 12.596C10.981 12.596 10.8296 12.5659 10.6884 12.5074C10.5473 12.4489 10.419 12.3631 10.311 12.2549L10.2761 12.22C10.139 12.086 9.96495 11.9961 9.77631 11.9618C9.58767 11.9276 9.3931 11.9507 9.21771 12.0281C9.04571 12.1019 8.89903 12.2243 8.7957 12.3803C8.69238 12.5363 8.63694 12.7191 8.63619 12.9062V13.0051C8.63619 13.3136 8.51365 13.6094 8.29554 13.8275C8.07743 14.0456 7.78161 14.1681 7.47315 14.1681C7.16469 14.1681 6.86887 14.0456 6.65076 13.8275C6.43264 13.6094 6.31011 13.3136 6.31011 13.0051V12.9528C6.30561 12.7603 6.2433 12.5736 6.1313 12.417C6.01929 12.2604 5.86277 12.1411 5.68207 12.0747C5.50667 11.9973 5.31211 11.9742 5.12347 12.0084C4.93482 12.0426 4.76075 12.1325 4.6237 12.2666L4.58881 12.3015C4.48079 12.4096 4.35252 12.4954 4.21133 12.5539C4.07014 12.6124 3.9188 12.6426 3.76596 12.6426C3.61312 12.6426 3.46177 12.6124 3.32058 12.5539C3.17939 12.4954 3.05112 12.4096 2.94311 12.3015C2.83497 12.1934 2.74919 12.0652 2.69066 11.924C2.63213 11.7828 2.602 11.6314 2.602 11.4786C2.602 11.3258 2.63213 11.1744 2.69066 11.0332C2.74919 10.892 2.83497 10.7638 2.94311 10.6558L2.978 10.6209C3.11206 10.4838 3.20199 10.3097 3.2362 10.1211C3.2704 9.93246 3.24731 9.73789 3.1699 9.5625C3.09619 9.3905 2.97379 9.24381 2.81777 9.14049C2.66175 9.03717 2.47893 8.98172 2.29181 8.98098H2.19295C1.88449 8.98098 1.58867 8.85844 1.37055 8.64033C1.15244 8.42222 1.02991 8.12639 1.02991 7.81794C1.02991 7.50948 1.15244 7.21366 1.37055 6.99554C1.58867 6.77743 1.88449 6.6549 2.19295 6.6549H2.24528C2.43776 6.65039 2.62444 6.58809 2.78104 6.47609C2.93764 6.36408 3.05692 6.20755 3.12338 6.02685C3.20079 5.85146 3.22388 5.6569 3.18968 5.46825C3.15547 5.27961 3.06554 5.10554 2.93148 4.96849L2.89659 4.9336C2.78845 4.82558 2.70267 4.69731 2.64414 4.55612C2.58561 4.41493 2.55548 4.26359 2.55548 4.11075C2.55548 3.95791 2.58561 3.80656 2.64414 3.66537C2.70267 3.52418 2.78845 3.39591 2.89659 3.2879C3.0046 3.17976 3.13287 3.09398 3.27406 3.03545C3.41525 2.97692 3.5666 2.94679 3.71944 2.94679C3.87228 2.94679 4.02362 2.97692 4.16481 3.03545C4.306 3.09398 4.43427 3.17976 4.54229 3.2879L4.57718 3.32279C4.71423 3.45685 4.8883 3.54678 5.07694 3.58098C5.26559 3.61519 5.46015 3.5921 5.63555 3.51469H5.68207C5.85406 3.44097 6.00075 3.31857 6.10407 3.16256C6.20739 3.00654 6.26284 2.82372 6.26359 2.63659V2.53773C6.26359 2.22928 6.38612 1.93345 6.60423 1.71534C6.82235 1.49723 7.11817 1.37469 7.42663 1.37469C7.73508 1.37469 8.03091 1.49723 8.24902 1.71534C8.46713 1.93345 8.58967 2.22928 8.58967 2.53773V2.59007C8.59041 2.7772 8.64586 2.96002 8.74918 3.11604C8.8525 3.27205 8.99919 3.39445 9.17119 3.46817C9.34658 3.54558 9.54115 3.56867 9.72979 3.53446C9.91843 3.50026 10.0925 3.41033 10.2296 3.27627L10.2644 3.24137C10.3725 3.13324 10.5007 3.04745 10.6419 2.98892C10.7831 2.9304 10.9345 2.90027 11.0873 2.90027C11.2401 2.90027 11.3915 2.9304 11.5327 2.98892C11.6739 3.04745 11.8021 3.13324 11.9101 3.24137C12.0183 3.34939 12.1041 3.47766 12.1626 3.61885C12.2211 3.76004 12.2513 3.91138 12.2513 4.06422C12.2513 4.21707 12.2211 4.36841 12.1626 4.5096C12.1041 4.65079 12.0183 4.77906 11.9101 4.88708L11.8753 4.92197C11.7412 5.05902 11.6513 5.23309 11.6171 5.42173C11.5829 5.61037 11.6059 5.80494 11.6834 5.98033V6.02685C11.7571 6.19885 11.8795 6.34554 12.0355 6.44886C12.1915 6.55218 12.3743 6.60763 12.5614 6.60838H12.6603C12.9688 6.60838 13.2646 6.73091 13.4827 6.94902C13.7008 7.16713 13.8233 7.46296 13.8233 7.77142C13.8233 8.07987 13.7008 8.3757 13.4827 8.59381C13.2646 8.81192 12.9688 8.93446 12.6603 8.93446H12.608C12.4208 8.9352 12.238 8.99065 12.082 9.09397C11.926 9.19729 11.8036 9.34398 11.7299 9.51598V9.51598Z" stroke="white" stroke-opacity="0.2" stroke-width="1.16304" stroke-linecap="round" stroke-linejoin="round"/>
</g>
<defs>
<clipPath id="clip0_1_467">
<rect width="13.9565" height="13.9565" fill="white" transform="translate(0.44931 0.793213)"/>
</clipPath>
</defs>
</svg>
